<svg width="20" height="20" viewBox="0 0 20 20" fill="none" xmlns="http://www.w3.org/2000/svg">
<path d="M18.8947 0H1.10526C0.494737 0 0 0.494737 0 1.10526V18.8947C0 19.5053 0.494737 20 1.10526 20H10.6842V12.2807H8.07018V9.2386H10.6702V7.01754C10.6702 4.43158 12.2456 3.02456 14.5509 3.02456C15.3333 3.02807 16.1158 3.07018 16.8947 3.15789V5.85614H15.3018C14.0491 5.85614 13.807 6.44912 13.807 7.32281V9.25263H16.807L16.4175 12.2807H13.807V20H18.8947C19.5053 20 20 19.5053 20 18.8947V1.10526C20 0.494737 19.5053 0 18.8947 0Z" fill="#262626"/>
</svg>
