<svg width="20" height="20" viewBox="0 0 20 20" fill="none" xmlns="http://www.w3.org/2000/svg">
<path fill-rule="evenodd" clip-rule="evenodd" d="M10 1.80176C12.6703 1.80176 12.9863 1.81208 14.041 1.86012C15.0159 1.90457 15.5454 2.06732 15.8979 2.20427C16.3647 2.38568 16.6978 2.60242 17.0479 2.95213C17.398 3.30224 17.6147 3.63528 17.7957 4.1021C17.9327 4.45459 18.0954 4.98413 18.1399 5.95904C18.1879 7.01334 18.1982 7.32971 18.1982 10C18.1982 12.6703 18.1879 12.9863 18.1399 14.041C18.0954 15.0159 17.9327 15.5454 17.7957 15.8979C17.6143 16.3647 17.3976 16.6978 17.0479 17.0479C16.6978 17.398 16.3647 17.6147 15.8979 17.7957C15.5454 17.9327 15.0159 18.0954 14.041 18.1399C12.9867 18.1879 12.6703 18.1983 10 18.1983C7.32971 18.1983 7.01334 18.1879 5.95903 18.1399C4.98412 18.0954 4.45459 17.9327 4.1021 17.7957C3.63528 17.6143 3.30224 17.3976 2.95213 17.0479C2.60202 16.6978 2.38528 16.3647 2.20427 15.8979C2.06732 15.5454 1.90457 15.0159 1.86011 14.041C1.81208 12.9867 1.80176 12.6703 1.80176 10C1.80176 7.32971 1.81208 7.01374 1.86011 5.95904C1.90457 4.98413 2.06732 4.45459 2.20427 4.1021C2.38568 3.63528 2.60241 3.30224 2.95213 2.95213C3.30224 2.60202 3.63528 2.38528 4.1021 2.20427C4.45459 2.06732 4.98412 1.90457 5.95903 1.86012C7.01373 1.81208 7.32971 1.80176 10 1.80176ZM10 0C7.28406 0 6.94347 0.0115116 5.87687 0.0603367C4.81264 0.108765 4.08582 0.277866 3.44951 0.525167C2.79176 0.780804 2.23404 1.12258 1.67831 1.67871C1.12258 2.23444 0.780406 2.79216 0.525167 3.44951C0.277866 4.08582 0.108765 4.81264 0.0603366 5.87687C0.0115116 6.94348 0 7.28407 0 10C0 12.716 0.0115116 13.0565 0.0603366 14.1231C0.108765 15.1874 0.277866 15.9142 0.525167 16.5505C0.780803 17.2083 1.12258 17.766 1.67871 18.3217C2.23484 18.8778 2.79216 19.2196 3.4499 19.4752C4.08582 19.7225 4.81304 19.8916 5.87726 19.9401C6.94387 19.9889 7.28445 20.0004 10.0004 20.0004C12.7163 20.0004 13.0569 19.9889 14.1235 19.9401C15.1878 19.8916 15.915 19.7225 16.5509 19.4752C17.2086 19.2196 17.7664 18.8778 18.3221 18.3217C18.8782 17.7656 19.22 17.2083 19.4756 16.5505C19.7229 15.9146 19.892 15.1874 19.9405 14.1231C19.9893 13.0565 20.0008 12.716 20.0008 10C20.0008 7.28407 19.9893 6.94348 19.9405 5.87687C19.892 4.81264 19.7229 4.08543 19.4756 3.44951C19.22 2.79176 18.8782 2.23404 18.3221 1.67831C17.766 1.12218 17.2086 0.780407 16.5509 0.52477C15.9142 0.277866 15.1874 0.108765 14.1231 0.0603367C13.0565 0.0115116 12.7159 0 10 0ZM10.0003 4.865C7.16412 4.865 4.86538 7.16414 4.86538 9.99996C4.86538 12.8358 7.16452 15.1349 10.0003 15.1349C12.8362 15.1349 15.1353 12.8358 15.1353 9.99996C15.1353 7.16414 12.8366 4.865 10.0003 4.865ZM10.0003 13.3332C8.15928 13.3332 6.66714 11.8406 6.66714 9.99996C6.66714 8.1589 8.15968 6.66676 10.0003 6.66676C11.841 6.66676 13.3335 8.15929 13.3335 9.99996C13.3335 11.841 11.8414 13.3332 10.0003 13.3332ZM16.5383 4.66172C16.5383 5.32445 16.001 5.86171 15.3383 5.86171C14.6756 5.86171 14.1383 5.32445 14.1383 4.66172C14.1383 3.99899 14.6756 3.46174 15.3383 3.46174C16.001 3.46174 16.5383 3.99899 16.5383 4.66172Z" fill="#262626"/>
</svg>
