<svg width="20" height="18" viewBox="0 0 20 18" fill="none" xmlns="http://www.w3.org/2000/svg">
<path d="M6.2896 17.126C13.8368 17.126 17.9648 10.8732 17.9648 5.45084C17.9648 5.27324 17.9648 5.09644 17.9528 4.92044C18.7559 4.33957 19.4491 3.62034 20 2.79644C19.2511 3.12828 18.4567 3.3459 17.6432 3.44204C18.4998 2.92923 19.1409 2.12266 19.4472 1.17244C18.6417 1.6504 17.7605 1.98725 16.8416 2.16844C16.2229 1.51059 15.4047 1.07497 14.5135 0.929011C13.6223 0.783047 12.7079 0.934869 11.9116 1.36098C11.1154 1.7871 10.4819 2.46375 10.109 3.28623C9.73605 4.10871 9.64462 5.03116 9.8488 5.91084C8.2174 5.82905 6.62144 5.4051 5.16451 4.66651C3.70759 3.92792 2.42227 2.89119 1.392 1.62364C0.867274 2.52697 0.70656 3.59633 0.942583 4.61399C1.17861 5.63165 1.79362 6.5211 2.6624 7.10124C2.00939 7.08189 1.37062 6.90573 0.8 6.58764C0.8 6.60444 0.8 6.62204 0.8 6.63964C0.800259 7.58701 1.12821 8.50514 1.72823 9.23828C2.32824 9.97142 3.16338 10.4744 4.092 10.662C3.4879 10.8268 2.85406 10.8509 2.2392 10.7324C2.50141 11.5478 3.01189 12.2608 3.69926 12.7717C4.38662 13.2826 5.21649 13.566 6.0728 13.582C4.61979 14.724 2.82485 15.3439 0.9768 15.342C0.650323 15.3414 0.324163 15.3216 0 15.2828C1.87651 16.4871 4.05993 17.1258 6.2896 17.1228" fill="#262626"/>
</svg>
